<svg width="18" height="16" viewBox="0 0 18 16" fill="none" xmlns="http://www.w3.org/2000/svg">
<g clip-path="url(#clip0_1_563)">
<path d="M0 2.52173H18V3.85216H0V2.52173Z" fill="#AEADAD"/>
<path d="M0 2.52173H1.17391V15.8261H0V2.52173Z" fill="#AEADAD"/>
<path d="M18 15.826H0V14.4956H18V15.826Z" fill="#AEADAD"/>
<path d="M18 15.8261H16.8261V2.52173H18V15.8261Z" fill="#AEADAD"/>
<path d="M6.26086 0.956498C6.26086 0.524275 6.61125 0.173889 7.04347 0.173889H10.9565C11.3888 0.173889 11.7391 0.524275 11.7391 0.956498V1.1371H6.26086V0.956498Z" fill="#AEADAD"/>
<path d="M10.7119 1.13727H11.7391V3.48509H10.7119V1.13727Z" fill="#AEADAD"/>
<path d="M6.26086 1.13727H7.28804V3.48509H6.26086V1.13727Z" fill="#AEADAD"/>
<path d="M17.2174 7.21735H0.782623V8.39126H17.2174V7.21735Z" fill="#AEADAD"/>
<path d="M14.087 6.43475H11.7391V9.17388H14.087V6.43475Z" fill="#AEADAD"/>
<path d="M6.26088 6.43475H3.91306V9.17388H6.26088V6.43475Z" fill="#AEADAD"/>
</g>
<defs>
<clipPath id="clip0_1_563">
<rect width="18" height="15.6522" fill="white" transform="translate(0 0.173889)"/>
</clipPath>
</defs>
</svg>
