<svg width="24" height="25" viewBox="0 0 24 25" fill="none" xmlns="http://www.w3.org/2000/svg">
<path d="M13.3695 12.5005L16.7921 9.07691C16.8846 8.98759 16.9583 8.88076 17.0091 8.76263C17.0598 8.64451 17.0865 8.51746 17.0876 8.3889C17.0888 8.26035 17.0643 8.13286 17.0156 8.01387C16.9669 7.89488 16.895 7.78678 16.8041 7.69587C16.7132 7.60496 16.6051 7.53307 16.4861 7.48439C16.3671 7.43571 16.2396 7.41121 16.1111 7.41233C15.9825 7.41345 15.8555 7.44016 15.7373 7.4909C15.6192 7.54164 15.5124 7.6154 15.4231 7.70787L11.9995 11.1305L8.57694 7.70787C8.48762 7.6154 8.38079 7.54164 8.26266 7.4909C8.14454 7.44016 8.01749 7.41345 7.88893 7.41233C7.76038 7.41121 7.63289 7.43571 7.5139 7.48439C7.39491 7.53307 7.28681 7.60496 7.1959 7.69587C7.105 7.78678 7.0331 7.89488 6.98442 8.01387C6.93574 8.13286 6.91124 8.26035 6.91236 8.3889C6.91348 8.51746 6.94019 8.64451 6.99093 8.76263C7.04167 8.88076 7.11543 8.98759 7.2079 9.07691L10.6305 12.4995L7.2079 15.923C7.11543 16.0124 7.04167 16.1192 6.99093 16.2373C6.94019 16.3554 6.91348 16.4825 6.91236 16.611C6.91124 16.7396 6.93574 16.8671 6.98442 16.9861C7.0331 17.1051 7.105 17.2132 7.1959 17.3041C7.28681 17.395 7.39491 17.4669 7.5139 17.5156C7.63289 17.5642 7.76038 17.5887 7.88893 17.5876C8.01749 17.5865 8.14454 17.5598 8.26266 17.509C8.38079 17.4583 8.48762 17.3845 8.57694 17.2921L11.9995 13.8695L15.4231 17.2921C15.5124 17.3845 15.6192 17.4583 15.7373 17.509C15.8555 17.5598 15.9825 17.5865 16.1111 17.5876C16.2396 17.5887 16.3671 17.5642 16.4861 17.5156C16.6051 17.4669 16.7132 17.395 16.8041 17.3041C16.895 17.2132 16.9669 17.1051 17.0156 16.9861C17.0643 16.8671 17.0888 16.7396 17.0876 16.611C17.0865 16.4825 17.0598 16.3554 17.0091 16.2373C16.9583 16.1192 16.8846 16.0124 16.7921 15.923L13.3695 12.5005Z" fill="#828282"/>
</svg>
