<svg width="18" height="18" viewBox="0 0 18 18" fill="none" xmlns="http://www.w3.org/2000/svg">
<g clip-path="url(#clip0_1_557)">
<path d="M17.999 9C17.999 13.9706 13.9696 18 8.999 18C4.02846 18 -0.000976562 13.9706 -0.000976562 9C-0.000976562 4.02944 4.02846 0 8.999 0C13.9696 0 17.999 4.02944 17.999 9ZM1.21368 9C1.21368 13.2998 4.69929 16.7853 8.999 16.7853C13.2988 16.7853 16.7843 13.2998 16.7843 9C16.7843 4.70027 13.2988 1.21465 8.999 1.21465C4.69929 1.21465 1.21368 4.70027 1.21368 9Z" fill="#AEADAD"/>
<path d="M12.2645 6.69017C12.2645 8.44966 10.8382 9.87601 9.07868 9.87601C7.3192 9.87601 5.89285 8.44966 5.89285 6.69017C5.89285 4.93068 7.3192 3.50433 9.07868 3.50433C10.8382 3.50433 12.2645 4.93068 12.2645 6.69017ZM6.99222 6.69017C6.99222 7.8425 7.92636 8.77664 9.07868 8.77664C10.231 8.77664 11.1651 7.8425 11.1651 6.69017C11.1651 5.53785 10.231 4.60369 9.07868 4.60369C7.92636 4.60369 6.99222 5.53785 6.99222 6.69017Z" fill="#AEADAD"/>
<path d="M5.11854 13.372C5.05917 12.8026 5.12193 12.2273 5.30268 11.6842C5.48341 11.1409 5.77798 10.6423 6.16681 10.2214C6.55565 9.80041 7.02985 9.46681 7.55791 9.24267C8.08597 9.01852 8.65578 8.90907 9.22956 8.92141C9.80333 8.93384 10.3678 9.06781 10.8857 9.31458C11.4035 9.56127 11.8628 9.9151 12.233 10.3524C12.6032 10.7897 12.8758 11.3007 13.0328 11.8511C13.1897 12.4017 13.2711 12.7918 13.1871 13.358L12.028 13.3807C12.0886 12.9724 12.0614 12.5558 11.9482 12.1588C11.8349 11.7617 11.6383 11.3932 11.3713 11.0778C11.1043 10.7624 10.7731 10.5072 10.3996 10.3293C10.0261 10.1513 9.61896 10.0547 9.20513 10.0457C8.7913 10.0368 8.38034 10.1158 7.99949 10.2774C7.61863 10.4391 7.27662 10.6797 6.99618 10.9833C6.71574 11.2869 6.50329 11.6465 6.37294 12.0383C6.24258 12.43 6.12399 12.9614 6.16681 13.372H5.11854Z" fill="#AEADAD"/>
</g>
<defs>
<clipPath id="clip0_1_557">
<rect width="18" height="18" fill="white"/>
</clipPath>
</defs>
</svg>
